<svg width="57" height="53" viewBox="0 0 57 53" fill="none" xmlns="http://www.w3.org/2000/svg">
<path d="M56.449 17.2554C55.5101 17.2554 54.5712 17.2637 53.6406 17.2554C52.2198 17.2471 50.7991 17.2388 49.3783 17.2139C49.0543 17.2056 48.9462 17.2887 48.9462 17.6293C48.9545 25.7884 48.9546 33.9475 48.9546 42.1149C48.9546 42.3226 48.9546 42.5303 48.9546 42.7796C49.154 42.7879 49.3035 42.8045 49.4531 42.8045C50.4833 42.8045 51.5053 42.8128 52.5356 42.7962C52.8762 42.7879 53.0175 42.9208 53.0092 43.2698C52.9926 44.6075 53.1421 44.4413 51.8875 44.4413C47.5421 44.4413 43.1883 44.4413 38.8429 44.4413C38.3195 44.4413 38.2696 44.3915 38.2696 43.8597C38.2613 42.6467 38.1865 42.8045 39.3331 42.8045C40.3052 42.8045 41.2691 42.8045 42.2827 42.8045C42.2827 34.2715 42.2827 25.7635 42.2827 17.189C38.7183 17.189 35.1373 17.189 31.5313 17.189C31.5313 25.6804 31.5313 34.1968 31.5313 42.763C31.6975 42.7796 31.8637 42.7962 32.0215 42.7962C32.977 42.7962 33.9325 42.7962 34.8963 42.7962C35.5361 42.7962 35.5444 42.8045 35.5527 43.4609C35.561 44.4413 35.561 44.433 34.6055 44.433C30.2269 44.433 25.8565 44.433 21.4779 44.4247C20.8298 44.4247 20.8215 44.4081 20.8132 43.7683C20.8049 42.6965 20.7301 42.7962 21.7853 42.7962C22.7906 42.7962 23.8043 42.7962 24.8429 42.7962C24.8429 34.2134 24.8429 25.6804 24.8429 17.081C20.9046 17.081 16.9829 17.081 13.0363 17.081C13.0363 25.6222 13.0363 34.1801 13.0363 42.7962C13.6511 42.7962 14.2493 42.7962 14.8559 42.7962C15.4292 42.7962 16.0108 42.8128 16.5841 42.7879C16.9579 42.7713 17.0826 42.9292 17.0743 43.2864C17.041 44.566 17.2321 44.4247 15.9526 44.4247C11.6072 44.433 7.25345 44.433 2.90803 44.433C2.37627 44.433 2.32642 44.3915 2.33473 43.8514C2.34304 42.6799 2.20179 42.7879 3.39824 42.7879C4.24572 42.7879 5.08489 42.7879 5.93237 42.7879C6.07362 42.7879 6.20656 42.7713 6.39766 42.7547C6.39766 41.957 6.39766 41.1843 6.39766 40.4116C6.39766 32.7428 6.39766 25.0739 6.40597 17.405C6.40597 17.0477 6.28965 16.9646 5.94899 16.9646C3.97984 16.9812 2.01069 16.9729 0.0415432 16.9729C0.0249259 16.9314 0.0166173 16.8899 0 16.8483C0.116321 16.7652 0.224333 16.6821 0.348963 16.6074C4.60299 13.9652 8.85702 11.3148 13.1027 8.6726C17.6393 5.84766 22.1841 3.03934 26.7206 0.206091C27.1277 -0.0514772 27.4185 -0.0764037 27.8506 0.181164C34.6969 4.24409 41.5515 8.2904 48.4062 12.345C50.9819 13.8655 53.5658 15.3943 56.1415 16.9148C56.2579 16.9812 56.3825 17.056 56.4988 17.1308C56.4656 17.189 56.4573 17.2222 56.449 17.2554ZM31.2488 9.64471C31.2571 7.66725 29.6453 6.06369 27.6429 6.05538C25.6156 6.03876 23.9621 7.63402 23.9538 9.61148C23.9455 11.5723 25.5657 13.1842 27.5681 13.2091C29.5954 13.234 31.2405 11.6305 31.2488 9.64471Z" fill="url(#paint0_linear_0_1)"/>
<path d="M27.7513 52.6327C19.3679 52.6327 10.9762 52.6327 2.59274 52.6327C2.07761 52.6327 2.03606 52.5912 2.03606 52.0844C2.03606 51.2701 2.04437 50.4559 2.02775 49.6333C2.01944 49.2594 2.13577 49.1016 2.53458 49.1016C12.0064 49.1099 21.4783 49.1099 30.9418 49.1099C38.2618 49.1099 45.5734 49.1099 52.8933 49.1099C53.5247 49.1099 53.5331 49.1099 53.5331 49.7413C53.5331 50.5473 53.5164 51.3449 53.5414 52.1508C53.5497 52.533 53.3918 52.641 53.0428 52.641C45.8808 52.6327 38.7187 52.6327 31.5567 52.6327C30.2855 52.6327 29.0142 52.6327 27.7513 52.6327Z" fill="url(#paint1_linear_0_1)"/>
<path d="M27.7507 48.4968C19.467 48.4968 11.175 48.4968 2.89127 48.4968C2.02717 48.4968 2.02717 48.4968 2.01887 47.6576C2.01887 47.1508 2.03548 46.644 2.01887 46.1372C2.01056 45.7799 2.16842 45.6719 2.50077 45.6719C5.45865 45.6802 8.40822 45.6719 11.3661 45.6719C16.9661 45.6719 22.5662 45.6719 28.1662 45.6719C33.7911 45.6719 39.4244 45.6719 45.0494 45.6719C47.6666 45.6719 50.2838 45.6719 52.901 45.6719C53.5159 45.6719 53.5325 45.6802 53.5325 46.3116C53.5325 46.86 53.5076 47.4084 53.5408 47.9568C53.5657 48.3722 53.3912 48.4968 53.0007 48.4968C50.9568 48.4885 48.9212 48.4968 46.8773 48.4968C41.809 48.4968 36.749 48.4968 31.6807 48.4968C30.368 48.4968 29.0635 48.4968 27.7507 48.4968Z" fill="url(#paint2_linear_0_1)"/>
<path d="M27.85 11.2145C27.8251 11.4471 27.8002 11.6549 27.7835 11.8626C27.7337 11.8626 27.6921 11.8709 27.6423 11.8709C27.6091 11.6548 27.5758 11.4471 27.5509 11.2643C27.2352 11.0068 26.5289 11.3142 26.637 10.5249C26.9444 10.5997 27.2186 10.6661 27.4927 10.7409C27.7005 10.0928 27.6174 9.98481 27.0939 9.67739C26.8862 9.55276 26.7117 9.27858 26.6453 9.03763C26.5622 8.73021 26.6785 8.43109 26.9776 8.24C27.5177 7.89103 27.5177 7.89103 27.742 7.45898C27.7919 7.69994 27.8251 7.8578 27.8666 8.02397C28.1408 8.18184 28.764 7.94919 28.5812 8.66374C28.3485 8.61388 28.1242 8.56403 27.8583 8.49757C27.8583 8.78837 27.8583 9.04594 27.8583 9.32843C28.3319 9.47799 28.8304 9.61092 28.8138 10.2922C28.7889 10.9403 28.3402 11.0899 27.85 11.2145ZM27.85 10.6495C27.8916 10.6827 27.9331 10.716 27.9746 10.7492C28.1076 10.5913 28.3236 10.4335 28.3319 10.2673C28.3402 10.1344 28.091 9.98481 27.958 9.84357C27.9248 9.86849 27.8832 9.89342 27.85 9.91834C27.85 10.1676 27.85 10.4086 27.85 10.6495ZM27.4429 9.32012C27.4761 9.29519 27.501 9.26196 27.5343 9.23703C27.5343 9.00439 27.5343 8.77175 27.5343 8.53911C27.4927 8.52249 27.4429 8.49756 27.4013 8.48095C27.2933 8.6305 27.1022 8.78006 27.1022 8.92961C27.1022 9.06255 27.3183 9.18718 27.4429 9.32012Z" fill="url(#paint3_linear_0_1)"/>
<defs>
<linearGradient id="paint0_linear_0_1" x1="0" y1="0" x2="45.8579" y2="57.0508" gradientUnits="userSpaceOnUse">
<stop stop-color="#F539F8"/>
<stop offset="0.416763" stop-color="#C342F9"/>
<stop offset="1" stop-color="#5356FB"/>
</linearGradient>
<linearGradient id="paint1_linear_0_1" x1="2.02734" y1="49.1016" x2="2.54977" y2="56.5433" gradientUnits="userSpaceOnUse">
<stop stop-color="#F539F8"/>
<stop offset="0.416763" stop-color="#C342F9"/>
<stop offset="1" stop-color="#5356FB"/>
</linearGradient>
<linearGradient id="paint2_linear_0_1" x1="2.01855" y1="45.6719" x2="2.35187" y2="51.6219" gradientUnits="userSpaceOnUse">
<stop stop-color="#F539F8"/>
<stop offset="0.416763" stop-color="#C342F9"/>
<stop offset="1" stop-color="#5356FB"/>
</linearGradient>
<linearGradient id="paint3_linear_0_1" x1="26.6191" y1="7.45898" x2="30.2883" y2="9.24568" gradientUnits="userSpaceOnUse">
<stop stop-color="#F539F8"/>
<stop offset="0.416763" stop-color="#C342F9"/>
<stop offset="1" stop-color="#5356FB"/>
</linearGradient>
</defs>
</svg>
