<svg width="64" height="38" viewBox="0 0 64 38" fill="none" xmlns="http://www.w3.org/2000/svg">
<path d="M31.6877 33.0807C29.2721 34.8123 26.8334 36.4574 23.8954 37.2712C13.3959 40.1746 2.42319 33.4703 0.36256 22.8295C-1.76157 11.874 5.68154 1.4814 16.5677 0.208653C22.1839 -0.446479 27.096 1.13507 31.3298 4.86384C31.0989 5.66039 30.184 5.98074 29.8954 6.84367C31.6213 7.16979 33.8811 6.10773 34.542 8.93028C32.8796 8.93028 31.2548 9.03706 29.653 8.89853C28.0888 8.76289 27.5751 9.54789 27.3298 10.9447C27.9156 10.9447 28.3918 10.9447 28.8709 10.9447C30.8854 10.9447 32.9056 11.0255 34.9143 10.9159C36.1899 10.8466 36.4496 11.7528 36.4785 12.5176C36.5131 13.4181 35.5896 12.9246 35.1394 12.9361C32.8854 13.0025 30.6227 13.0862 28.3774 12.9246C26.7179 12.8062 25.8319 13.3026 25.7078 14.9852C24.8564 15.0573 23.7453 14.5321 23.4307 15.8914C22.9285 18.0848 22.6544 20.3186 22.5533 22.5582C22.4927 23.906 24.1176 24.6506 25.298 23.929C25.9214 23.5481 25.9012 22.5062 25.2258 22.1974C24.943 22.0675 24.5822 21.9261 24.6602 21.6664C25.018 20.4629 24.487 18.9795 25.8896 18.0848C26.5649 17.6548 26.7843 16.483 26.1696 16.2637C25.1854 15.9116 25.7597 15.4123 25.6905 14.9679C28.8969 14.9679 32.1062 15.0054 35.3125 14.9448C36.415 14.9246 37.353 14.9996 37.8523 16.1396C37.6935 16.688 37.5377 17.2363 37.3789 17.7847C36.187 21.8828 38.1409 24.6015 41.8725 24.0387C41.0731 24.9882 39.6474 25.0661 38.1755 24.2061C37.6127 23.8771 37.0875 23.2133 36.8652 24.5091C36.744 25.2191 36.0543 25.0459 35.5521 25.0459C32.9142 25.0546 30.2764 25.0344 27.6357 25.069C27.2287 25.0748 26.4466 24.7458 26.4668 25.4009C26.487 26.0214 26.6833 26.8872 27.5953 27.0287C28.0166 27.095 28.4582 27.0517 28.8882 27.0517C31.1566 27.0517 33.4251 27.0517 35.7599 27.0517C35.402 28.5756 34.7324 29.2192 33.2894 29.1037C31.6992 28.9738 30.0888 29.0749 28.4524 29.0749C29.0989 31.9667 31.4222 30.7805 33.1105 31.1961C32.744 32.0071 31.9243 32.3332 31.6877 33.0807ZM8.09716 19.5307C8.78403 20.9045 7.92399 21.8193 8.11159 22.7746C8.20683 23.2566 7.71042 23.9925 8.75806 23.9666C9.44205 23.9492 10.0279 24.0474 10.1664 23.0344C10.5561 20.1916 11.0756 17.3662 11.5431 14.5321C8.49832 14.0126 8.48966 14.0617 7.45645 16.8438C7.20825 17.5134 7.31793 18.4456 6.3713 18.9189C6.3713 17.7125 6.37707 16.61 6.36841 15.5076C6.36264 14.9592 6.52426 14.1944 5.58053 14.3993C4.75512 14.5783 3.46217 13.6259 3.2082 15.3546C2.84167 17.8655 2.39433 20.3648 2.01338 22.8756C1.95566 23.2508 1.50543 23.8973 2.38856 23.9377C2.99752 23.9637 3.71903 24.2321 3.85179 23.1296C4.05669 21.4384 4.43188 19.7703 4.73492 18.0935C5.05238 19.6231 5.01775 21.1354 5.07258 22.6448C5.0899 23.1238 4.74646 23.8511 5.70751 23.9666C6.60507 24.0762 6.7032 23.4182 6.91099 22.8525C7.27175 21.8713 7.61519 20.8843 8.09716 19.5307ZM31.9503 22.056C30.9662 22.2292 30.0253 22.5495 29.0758 22.1628C28.5996 21.9665 28.2331 21.6087 28.3514 21.0632C28.4697 20.512 28.9835 20.7861 29.3153 20.7688C30.0802 20.7255 30.8478 20.7631 31.6155 20.7515C31.9359 20.7457 32.2851 20.8179 32.4063 20.3446C32.7209 19.1382 32.8017 17.9434 31.9849 16.9131C31.2086 15.9347 30.0773 15.7471 28.9777 16.1338C27.1306 16.7832 25.7799 18.6332 26.3398 21.5827C26.6919 23.4298 28.2129 24.3706 30.3688 24.1513C31.5953 24.0214 32.4034 23.6145 31.9503 22.056ZM13.1391 17.851C13.6008 17.851 13.8894 17.8424 14.178 17.8539C14.6571 17.8741 15.2545 17.8366 15.2805 18.4888C15.3152 19.3345 14.5936 18.942 14.2156 18.965C13.1679 19.0257 12.1982 19.2392 11.5085 20.0819C10.735 21.0257 10.6484 22.1166 11.1679 23.1873C11.5777 24.0329 12.3858 24.2292 13.2603 24.0531C14.0222 23.9002 14.7004 23.3749 15.5749 23.9233C15.9963 24.1888 16.5561 23.9666 16.6456 23.2075C16.8245 21.6837 17.1449 20.1801 17.3094 18.6562C17.4595 17.2565 16.7899 16.307 15.5374 16.1281C14.787 16.0213 14.0078 16.1021 13.243 16.1338C12.406 16.1685 11.7971 16.636 11.9067 17.4585C12.0193 18.3186 12.8187 17.7731 13.1391 17.851ZM21.0641 16.0155C19.2315 15.9924 18.1954 16.5725 17.878 17.7904C17.5287 19.1209 17.9415 20.1252 19.194 20.7833C19.6182 21.0055 20.3946 21.1152 20.1637 21.8078C19.9242 22.5264 19.1767 22.4081 18.5562 22.3561C18.3657 22.3388 18.1752 22.2955 17.9934 22.2407C17.2401 22.0098 17.041 22.6101 16.9544 23.0748C16.865 23.5481 17.0699 24.0099 17.7337 24.0127C18.3542 24.0156 18.9775 24.1137 19.5952 24.0878C20.8968 24.0358 21.9502 23.5423 22.2215 22.1368C22.4783 20.7948 21.9617 19.8078 20.6716 19.2421C20.3917 19.1209 19.927 19.0372 19.9877 18.6187C20.0569 18.157 20.4869 18.1281 20.8852 18.1396C21.8953 18.1743 22.588 17.7847 22.5129 16.6822C22.4379 15.5624 21.4278 16.3647 21.0641 16.0155ZM37.2635 16.079C36.4121 16.6678 35.705 16.6216 34.8623 16.1858C34.2159 15.851 33.7858 16.2926 33.6762 17.0978C33.4193 18.991 33.0499 20.8698 32.7526 22.7602C32.692 23.144 32.3486 23.7068 32.8825 23.8944C33.3443 24.056 34.0109 24.0762 34.415 23.8511C34.9229 23.5712 34.7902 22.8352 34.8998 22.2927C35.148 21.0834 34.972 19.574 35.9215 18.7948C36.8133 18.0588 36.897 17.144 37.2635 16.079Z" fill="#CB2332"/>
<path d="M31.6875 33.0813C31.9271 32.331 32.7467 32.0077 33.1075 31.2025C31.422 30.7869 29.0988 31.9731 28.4494 29.0813C30.0858 29.0813 31.6962 28.9803 33.2864 29.1101C34.7323 29.2285 35.4019 28.582 35.7569 27.0582C33.422 27.0582 31.1536 27.0582 28.8852 27.0582C28.4523 27.0582 28.0136 27.1015 27.5922 27.0351C26.6803 26.8937 26.484 26.025 26.4638 25.4074C26.4407 24.7493 27.2228 25.0812 27.6326 25.0755C30.2705 25.0408 32.9083 25.0639 35.5491 25.0524C36.0541 25.0495 36.741 25.2226 36.8622 24.5156C37.0844 23.2197 37.6097 23.8835 38.1725 24.2125C39.6444 25.0755 41.0701 24.9946 41.8695 24.0451C42.109 23.8951 42.3515 23.7421 42.5939 23.592C43.4337 24.5819 44.3255 25.3265 45.6185 24.2587C45.8696 24.1577 46.0052 23.82 46.3486 23.9095C46.923 24.8475 47.5492 24.8792 48.2274 24.0221C49.1914 23.8575 48.493 22.7551 49.1164 22.3799C49.3761 22.68 49.3126 23.009 49.3011 23.3265C48.9836 23.7306 48.7989 24.2558 49.3819 24.4405C49.8523 24.5906 50.6027 24.8879 50.8682 23.9961C51.4829 23.9153 51.5551 23.4506 51.6416 22.9571C51.8523 21.7363 52.0919 20.5213 52.3199 19.3063C52.7499 19.263 53.0385 19.263 52.9288 19.8921C52.8047 20.5877 52.7903 21.3236 52.8509 22.0307C52.949 23.1851 53.4108 24.4694 54.6027 24.5098C56.0833 24.5589 57.6792 25.0437 59.1136 24.1635C59.1425 24.1462 59.1425 24.074 59.154 24.0278C59.4974 23.8835 59.6475 23.6209 59.7024 23.2544C60.1006 20.6512 60.5278 18.0537 60.9058 15.4476C60.9549 15.1157 61.4311 14.5068 60.6778 14.426C60.1266 14.3682 59.408 14.045 59.0184 14.8185C58.8712 15.1128 58.6287 15.4188 58.6287 15.7189C58.6287 16.5299 58.3575 16.5703 57.6764 16.2817C56.3921 15.7391 55.356 16.2038 54.5046 17.2398C54.3314 17.4505 54.3199 17.9614 53.7109 17.7074C53.8495 17.2139 53.9909 16.7088 54.1179 16.2557C53.3415 15.8401 53.0298 16.882 52.3083 16.5472C50.7845 15.8459 50.3573 16.1778 50.2332 17.8084C50.1524 18.8618 50.2044 19.9931 49.5146 21.0869C49.1337 20.3308 49.3559 19.7594 49.4136 19.2081C49.5406 18.0075 49.5781 16.8618 48.2736 16.2499C47.125 15.7102 44.9633 16.0883 44.1495 16.9253C43.6011 17.3178 43.451 17.9498 43.7079 18.4462C43.9878 18.9917 44.5564 18.4664 44.998 18.4606C45.6964 18.4491 46.4439 18.224 46.9836 18.9109C45.2952 18.9224 43.8349 19.3438 43.0845 21.061C42.6487 21.1302 42.7497 21.517 42.6574 21.7883C40.0599 22.6252 38.8824 21.6468 39.2634 18.9513C39.3586 18.2788 39.5549 17.641 40.0542 17.1388L40.0484 17.1417C40.0801 17.0436 40.1436 16.9801 40.2447 16.9541C41.0499 16.9714 41.8666 16.83 42.6487 17.185C43.0095 17.3495 43.1538 17.0667 43.2375 16.7665C44.3688 15.1244 44.0773 14.3827 42.1754 14.1662C40.3485 13.9584 39.0469 14.9483 37.8464 16.1403C37.3471 14.9974 36.4091 14.9224 35.3066 14.9454C32.1002 15.0061 28.891 14.9685 25.6846 14.9685L25.699 14.983C25.8231 13.3004 26.7091 12.8011 28.3686 12.9223C30.611 13.0839 32.8766 12.9974 35.1306 12.9339C35.5808 12.9194 36.5043 13.4158 36.4697 12.5154C36.4409 11.7506 36.1811 10.8415 34.9055 10.9136C32.8968 11.0233 30.8766 10.9425 28.8621 10.9425C28.3859 10.9425 27.9068 10.9425 27.321 10.9425C27.5663 9.54277 28.08 8.76065 29.6442 8.8963C31.2489 9.03483 32.8708 8.92804 34.5332 8.92804C33.8694 6.10549 31.6125 7.16756 29.8866 6.84144C30.1753 5.97851 31.093 5.65816 31.321 4.86161C33.3672 3.54557 35.2662 1.99 37.6241 1.19922C44.7469 -1.19331 51.2693 -0.0504362 56.7817 5.029C62.5134 10.3105 64.3258 17.0061 62.1122 24.4665C59.9448 31.774 54.8365 36.2589 47.3616 37.6528C41.4828 38.7524 36.1436 37.243 31.6875 33.0813Z" fill="#E8AF41"/>
<path d="M8.09706 19.5317C7.6151 20.8853 7.27166 21.8723 6.9109 22.8536C6.70311 23.4192 6.60498 24.0772 5.70742 23.9676C4.74925 23.8492 5.08981 23.1248 5.07249 22.6458C5.02054 21.1364 5.05229 19.6241 4.73483 18.0945C4.43179 19.7713 4.0566 21.4423 3.85169 23.1306C3.71893 24.2302 2.99743 23.9647 2.38847 23.9387C1.50823 23.9012 1.95556 23.2547 2.01328 22.8766C2.39424 20.3687 2.84158 17.8694 3.20811 15.3556C3.46208 13.6269 4.75214 14.5793 5.58043 14.4003C6.52417 14.1954 6.36255 14.9602 6.36832 15.5086C6.37698 16.6111 6.37121 17.7135 6.37121 18.9199C7.31783 18.4466 7.20816 17.5173 7.45636 16.8448C8.49245 14.0627 8.50111 14.0136 11.543 14.5331C11.0755 17.3643 10.5589 20.1897 10.1664 23.0354C10.0278 24.0484 9.43907 23.9531 8.75797 23.9676C7.71033 23.9907 8.20385 23.2576 8.1115 22.7756C7.9239 21.8204 8.78394 20.9055 8.09706 19.5317Z" fill="#FEFEFE"/>
<path d="M31.9511 22.0562C32.4042 23.6175 31.5961 24.0215 30.3695 24.1485C28.2137 24.3708 26.6898 23.4299 26.3406 21.58C25.7807 18.6304 27.1343 16.7805 28.9785 16.1311C30.0781 15.7444 31.2065 15.932 31.9857 16.9103C32.8025 17.9407 32.7217 19.1355 32.4071 20.3418C32.283 20.8152 31.9338 20.743 31.6163 20.7488C30.8486 20.7603 30.0809 20.7257 29.3161 20.7661C28.9842 20.7834 28.4705 20.5092 28.3522 21.0605C28.2339 21.6088 28.6004 21.9667 29.0766 22.16C30.0261 22.5497 30.967 22.2293 31.9511 22.0562ZM29.4633 17.8252C29.3219 17.8223 28.8659 17.9984 28.9236 18.2985C29.0275 18.8353 29.5932 19.0027 30.0954 19.0922C30.4128 19.147 30.661 18.9998 30.6379 18.6246C30.6062 18.0301 30.2426 17.805 29.4633 17.8252Z" fill="#FEFEFE"/>
<path d="M13.1389 17.8516C12.8185 17.7737 12.0191 18.3191 11.9065 17.4562C11.7969 16.6337 12.4087 16.1661 13.2428 16.1315C14.0076 16.0998 14.7868 16.019 15.5372 16.1257C16.7897 16.3047 17.4593 17.2542 17.3092 18.6539C17.1447 20.1777 16.8215 21.6843 16.6454 23.2052C16.5559 23.9642 15.996 24.1865 15.5747 23.9209C14.7002 23.3726 14.0249 23.8979 13.2601 24.0508C12.3856 24.224 11.5804 24.0306 11.1677 23.185C10.6482 22.1143 10.7348 21.0234 11.5082 20.0796C12.198 19.2369 13.1706 19.0233 14.2154 18.9627C14.5934 18.9396 15.3149 19.3321 15.2803 18.4865C15.2543 17.8372 14.6569 17.8718 14.1778 17.8516C13.8892 17.8429 13.6006 17.8516 13.1389 17.8516ZM14.9917 20.8733C14.96 20.4 14.5877 20.4548 14.2731 20.4808C13.5487 20.5443 12.9282 20.804 12.8734 21.6323C12.8416 22.1143 13.1331 22.4924 13.6699 22.4202C14.5271 22.3105 14.7926 21.6294 14.9917 20.8733Z" fill="#FEFEFE"/>
<path d="M37.8492 16.1463C39.0498 14.9544 40.3514 13.9645 42.1783 14.1723C44.0773 14.3887 44.3717 15.1275 43.2403 16.7726C42.1898 16.0049 41.1884 16.0222 40.2475 16.9602C40.1465 16.9861 40.083 17.0496 40.0513 17.1478L40.0542 17.1449C39.5549 17.6471 39.3586 18.2849 39.2634 18.9573C38.8824 21.65 40.0599 22.6313 42.6574 21.7943C42.9893 22.409 42.3514 22.9862 42.5881 23.5981C42.3457 23.7481 42.1061 23.9011 41.8637 24.0512C38.132 24.6111 36.1782 21.8953 37.3701 17.7971C37.5346 17.243 37.6905 16.6947 37.8492 16.1463Z" fill="#FEFEFE"/>
<path d="M21.064 16.0163C21.4277 16.3655 22.4378 15.5632 22.5128 16.6801C22.5879 17.7825 21.8923 18.1722 20.8851 18.1375C20.4868 18.1231 20.0568 18.1548 19.9876 18.6166C19.9241 19.0351 20.3916 19.1188 20.6715 19.24C21.9616 19.8028 22.4782 20.7927 22.2214 22.1347C21.9501 23.5431 20.8995 24.0337 19.5951 24.0857C18.9774 24.1116 18.3541 24.0106 17.7336 24.0106C17.0727 24.0077 16.8677 23.546 16.9543 23.0727C17.0409 22.608 17.24 22.0077 17.9933 22.2386C18.1751 22.2934 18.3656 22.3396 18.5561 22.354C19.1737 22.406 19.9212 22.5272 20.1636 21.8057C20.3945 21.113 19.6181 21.0034 19.1939 20.7811C17.9385 20.1231 17.5286 19.1188 17.8779 17.7883C18.1953 16.5733 19.2285 15.9932 21.064 16.0163Z" fill="#FEFEFE"/>
<path d="M25.6878 14.9734C25.757 15.4178 25.1827 15.9171 26.1668 16.2692C26.7816 16.4885 26.5622 17.6574 25.8869 18.0903C24.4843 18.985 25.0153 20.4684 24.6574 21.6719C24.5795 21.9316 24.9403 22.073 25.2231 22.2029C25.8984 22.5117 25.9186 23.5536 25.2953 23.9345C24.1149 24.656 22.4871 23.9143 22.5506 22.5637C22.6516 20.3241 22.9229 18.0903 23.428 15.8969C23.7397 14.5376 24.8537 15.0628 25.7051 14.9907C25.7022 14.9878 25.6878 14.9734 25.6878 14.9734Z" fill="#FEFEFE"/>
<path d="M37.2635 16.0791C36.897 17.144 36.8133 18.0589 35.9215 18.7948C34.972 19.5741 35.151 21.0835 34.8999 22.2927C34.7873 22.8353 34.9201 23.5712 34.415 23.8512C34.011 24.0763 33.3443 24.0561 32.8825 23.8945C32.3457 23.7069 32.6921 23.1441 32.7527 22.7603C33.0499 20.8699 33.4193 18.994 33.6762 17.0978C33.7859 16.2926 34.2188 15.854 34.8624 16.1859C35.7051 16.6216 36.4122 16.6678 37.2635 16.0791Z" fill="#FEFEFE"/>
<path d="M52.3204 19.3081C52.0924 20.526 51.8528 21.741 51.6421 22.9589C51.5585 23.4495 51.4834 23.9142 50.8687 23.9979C50.3175 23.842 49.5122 24.2807 49.3045 23.3283C49.316 23.0108 49.3766 22.6818 49.1197 22.3817C48.4964 22.7569 49.1948 23.8565 48.2308 24.0238C47.5757 24.4856 47.036 22.9531 46.352 23.9113C46.0086 23.8218 45.8729 24.1595 45.6219 24.2605C43.1283 23.9315 42.9321 23.6833 43.0908 21.0657C43.8412 19.3513 45.3015 18.9271 46.9898 18.9184C47.3593 19.0252 47.5613 18.8636 47.544 18.5029C47.5295 18.1854 47.2986 17.9458 47.0014 17.9199C46.4299 17.8679 45.8066 17.7525 45.2871 17.917C44.2481 18.2431 44.0432 17.8217 44.1558 16.9328C44.9696 16.0959 47.1313 15.7178 48.2799 16.2575C49.5844 16.8722 49.5469 18.018 49.4199 19.2157C49.3622 19.7669 49.1371 20.3384 49.5209 21.0945C50.2078 20.0007 50.1558 18.8723 50.2395 17.816C50.3636 16.1882 50.7936 15.8535 52.3146 16.5548C53.039 16.8896 53.3507 15.8477 54.1241 16.2633C53.9972 16.7164 53.8557 17.2214 53.7172 17.715C54.3291 17.966 54.3377 17.4581 54.5109 17.2474C55.3623 16.2113 56.3955 15.7438 57.6826 16.2893C58.3609 16.5779 58.635 16.5346 58.635 15.7265C58.635 15.4263 58.8746 15.1204 59.0246 14.826C59.4143 14.0526 60.1329 14.3729 60.6841 14.4335C61.4374 14.5143 60.9612 15.1233 60.9121 15.4552C60.5369 18.0613 60.1098 20.6587 59.7086 23.2619C59.6538 23.6256 59.5037 23.8911 59.1603 24.0354C58.1733 23.9748 57.2555 23.5938 56.179 23.9806C55.1371 24.3557 54.2396 23.715 53.7374 22.6934C53.2497 21.6977 53.3478 20.6443 53.4604 19.5909C53.5008 19.2157 54.0058 18.7049 53.4344 18.4884C52.8341 18.2547 52.5253 18.8001 52.3204 19.3081ZM45.3506 20.9935C44.9119 21.3687 44.9234 21.8103 45.2842 22.1883C45.6796 22.6039 46.1067 22.4885 46.4675 22.0815C47.062 21.7439 47.3939 21.0887 47.0447 20.6212C46.7186 20.1883 46.0115 20.5 45.5151 20.7828C45.4458 20.8261 45.4054 20.9242 45.3506 20.9935ZM57.7461 20.8405C58.2194 20.4048 58.1213 19.8275 58.0982 19.2907C58.078 18.8232 58.0318 18.3095 57.4835 18.1132C56.8659 17.8939 56.3753 18.0613 56.0751 18.676C55.6249 19.0339 55.5585 19.5765 55.4979 20.0757C55.4055 20.829 55.3536 21.715 56.2079 22.0383C57.2007 22.4163 57.4085 21.4755 57.7461 20.8405Z" fill="#FEFEFE"/>
<path d="M52.3203 19.3085C52.5252 18.8005 52.834 18.2551 53.4314 18.483C54.0029 18.6995 53.4978 19.2103 53.4574 19.5855C53.342 20.6418 53.2467 21.6923 53.7345 22.688C54.2338 23.7097 55.1342 24.3504 56.1761 23.9752C57.2497 23.5885 58.1703 23.9665 59.1573 24.03C59.1429 24.0762 59.1458 24.1455 59.1169 24.1657C57.6826 25.0488 56.0837 24.5639 54.6061 24.512C53.4141 24.4716 52.9523 23.1873 52.8542 22.0329C52.7936 21.3258 52.8081 20.5927 52.9322 19.8943C53.0389 19.2652 52.7503 19.2652 52.3203 19.3085Z" fill="#CB2332"/>
<path d="M44.1523 16.9277C44.0426 17.8166 44.2447 18.238 45.2836 17.9119C45.806 17.7474 46.4265 17.8657 46.9979 17.9148C47.2952 17.9407 47.5261 18.1803 47.5405 18.4977C47.5578 18.8585 47.3529 19.0201 46.9864 18.9133C46.4467 18.2265 45.6963 18.4516 45.0008 18.4631C44.5592 18.4689 43.9907 18.9941 43.7107 18.4487C43.4539 17.9523 43.604 17.3202 44.1523 16.9277Z" fill="#CB2332"/>
<path d="M43.0878 21.0645C42.929 23.6821 43.1253 23.9332 45.6188 24.2593C44.3259 25.3271 43.4341 24.5797 42.5943 23.5926C42.3547 22.9808 42.9925 22.4036 42.6635 21.7888C42.753 21.5176 42.652 21.1337 43.0878 21.0645Z" fill="#CB2332"/>
<path d="M40.248 16.9576C41.1918 16.0196 42.1932 15.9994 43.2409 16.77C43.1572 17.0701 43.01 17.353 42.6492 17.1885C41.87 16.8335 41.0533 16.9778 40.248 16.9576Z" fill="#CB2332"/>
<path d="M46.3486 23.91C47.0355 22.9519 47.5723 24.4815 48.2274 24.0226C47.5492 24.8797 46.923 24.848 46.3486 23.91Z" fill="#CB2332"/>
<path d="M49.3042 23.3262C49.512 24.2786 50.3172 23.8399 50.8685 23.9957C50.6058 24.8875 49.8555 24.5903 49.385 24.4402C48.8021 24.2555 48.9868 23.7331 49.3042 23.3262Z" fill="#CB2332"/>
<path d="M40.0589 17.1426L40.0547 17.1468L40.0589 17.1426Z" fill="#CB2332"/>
<path d="M29.4627 17.8255C30.2419 17.8053 30.6056 18.0304 30.6373 18.6278C30.6575 19.0001 30.4093 19.1502 30.0947 19.0953C29.5926 19.0059 29.0269 18.8385 28.923 18.3017C28.8653 17.9986 29.3213 17.8226 29.4627 17.8255Z" fill="#CB2332"/>
<path d="M14.9912 20.8733C14.7892 21.6265 14.5266 22.3076 13.6694 22.4202C13.1326 22.4895 12.8382 22.1143 12.8729 21.6323C12.9277 20.804 13.5511 20.5443 14.2726 20.4808C14.5872 20.4548 14.9595 20.4028 14.9912 20.8733Z" fill="#CB2332"/>
<path d="M57.746 20.8423C57.4084 21.4772 57.2006 22.4181 56.2078 22.0371C55.3564 21.711 55.4054 20.8279 55.4978 20.0746C55.5584 19.5753 55.6248 19.0356 56.075 18.6778C57.1515 18.5334 57.5758 19.0616 57.5123 20.0804C57.4949 20.369 57.4488 20.6547 57.746 20.8423Z" fill="#E8AF41"/>
<path d="M57.7462 20.8417C57.449 20.6541 57.4951 20.3655 57.5124 20.0769C57.5759 19.0581 57.1517 18.53 56.0752 18.6743C56.3753 18.0595 56.8631 17.8922 57.4836 18.1115C58.0319 18.3077 58.0781 18.8215 58.0983 19.289C58.1214 19.8287 58.2195 20.4088 57.7462 20.8417Z" fill="#CB2332"/>
<path d="M46.4707 22.0822C46.1071 22.4891 45.6828 22.6046 45.2875 22.189C44.9267 21.8109 44.9152 21.3693 45.3538 20.9941C46.0436 21.0288 46.7218 21.0778 46.4707 22.0822Z" fill="#E8AF41"/>
<path d="M46.4704 22.082C46.7215 21.0748 46.0461 21.0257 45.3506 20.994C45.4054 20.9218 45.4458 20.8266 45.518 20.7833C46.0144 20.5005 46.7215 20.1859 47.0476 20.6217C47.3968 21.0892 47.0649 21.7443 46.4704 22.082Z" fill="#CB2332"/>
</svg>
