<svg width="59" height="38" viewBox="0 0 59 38" fill="none" xmlns="http://www.w3.org/2000/svg">
<path d="M30.0091 37.997C22.0339 37.997 14.0588 38.0008 6.08747 37.997C3.61597 37.997 1.88822 36.8171 1.22457 34.7023C1.07201 34.2158 1.00336 33.7178 1.00336 33.2082C0.999546 24.0904 0.991918 14.9687 1.00717 5.85092C1.01099 2.9585 3.01717 1.02383 6.05314 1.01234C12.743 0.98552 19.4366 1.00467 26.1264 1.00467C35.158 1.00467 44.1858 1.00851 53.2175 1.00084C54.6134 1.00084 55.9865 1.06597 57.1574 1.97392C58.3702 2.91635 58.9957 4.16527 58.9957 5.69768C59.0034 12.2142 58.9957 18.7308 58.9957 25.2474C58.9957 27.8486 58.9843 30.4499 58.9957 33.0512C59.011 35.9589 57.0773 37.9664 54.1557 37.9817C49.6018 38.0047 45.0478 37.9855 40.4977 37.9855C37.004 37.9932 33.5065 37.9932 30.0091 37.997ZM1.94161 32.8328C1.81575 35.4226 3.34136 37.0737 5.90439 37.0776C21.9767 37.0814 38.0491 37.0622 54.1176 37.1006C56.3984 37.1082 58.4084 35.2808 58.0613 32.8328C58.0613 30.8598 58.0613 28.8907 58.0613 26.9177C58.0689 22.2439 58.0613 17.57 58.1033 12.9C58.1109 12.2066 57.9278 12.0418 57.2451 12.0418C39.0827 12.0648 20.9202 12.061 2.754 12.061C2.62814 12.061 2.50227 12.0725 2.37641 12.0572C2.01789 12.0112 1.90347 12.1568 1.90729 12.5207C1.92636 17.321 1.93017 22.1213 1.94161 26.9177C1.94161 28.8907 1.94161 30.8636 1.94161 32.8328ZM29.9214 6.14591C38.9797 6.14591 48.038 6.14591 57.1002 6.14591C58.1833 6.14591 58.2367 6.08461 58.0575 5.00043C58.0422 4.90082 58.0041 4.80888 57.9774 4.70927C57.4549 2.87038 56.0437 1.91263 53.8315 1.91263C37.9537 1.91263 22.0759 1.91263 6.19807 1.91646C5.74802 1.91646 5.29033 1.94711 4.84791 2.03522C3.23838 2.36086 2.0484 3.7745 1.91491 5.36821C1.86152 6.00799 2.03315 6.16123 2.67009 6.1574C11.7551 6.13824 20.8401 6.14591 29.9214 6.14591Z" fill="#275797"/>
<path d="M46.2909 24.894C46.0887 24.894 45.8866 24.8749 45.6882 24.8979C45.2077 24.9515 44.9292 24.8136 44.9064 24.2696C44.8758 23.4574 44.441 23.1318 43.6287 23.2697C43.2854 23.3272 42.9231 23.3118 42.576 23.2735C41.5538 23.1624 40.6804 23.2429 40.5088 24.5378C40.4706 24.8366 40.2342 24.9055 39.9443 24.9017C39.2921 24.8864 38.6361 24.8826 37.9839 24.9017C37.5148 24.917 37.4919 24.7408 37.6559 24.3577C38.9794 21.3082 40.299 18.2549 41.592 15.1901C41.9734 14.286 42.7705 14.171 43.5524 14.0484C44.0444 13.9718 44.5555 14.0408 45.0589 14.0293C45.3145 14.0254 45.3564 14.1289 45.4098 14.3779C46.062 17.5615 46.7371 20.7412 47.4122 23.9171C47.6181 24.8979 47.6258 24.8979 46.6723 24.8979C46.5426 24.894 46.4167 24.894 46.2909 24.894ZM41.5538 21.5994C42.5417 21.5994 43.3922 21.6032 44.2427 21.5994C44.4296 21.5994 44.7004 21.6492 44.6165 21.3159C44.2847 19.975 43.9338 18.6342 43.5447 17.1132C42.843 18.6878 42.2251 20.0785 41.5538 21.5994Z" fill="#275797"/>
<path d="M12.6322 14.1567C14.032 14.1567 15.4279 14.1337 16.8277 14.1644C17.8346 14.1874 18.1206 14.4096 18.3342 15.398C18.7309 17.2177 19.0741 19.0451 19.4441 20.8725C19.467 20.9874 19.5089 21.1024 19.5966 21.4088C20.2374 19.8113 20.8171 18.3862 21.3778 16.9534C21.6638 16.2293 21.9537 15.5014 22.1749 14.7544C22.3199 14.2716 22.5678 14.1376 23.0445 14.1644C23.7692 14.2027 24.5015 14.1759 25.2376 14.1759C25.3368 14.5015 25.1308 14.7237 25.0355 14.9574C23.7692 18.026 22.4762 21.087 21.2214 24.1633C21.0078 24.6882 20.7409 24.9142 20.1687 24.8453C19.4288 24.7571 18.4944 25.1441 17.9909 24.6805C17.5333 24.2591 17.5142 23.3435 17.3159 22.6424C16.8086 20.8265 16.2975 19.0068 15.8169 17.1832C15.714 16.7848 15.5118 16.5166 15.1876 16.2906C14.3066 15.6738 13.437 15.0378 12.5674 14.4096C12.5903 14.3214 12.6093 14.2372 12.6322 14.1567Z" fill="#275797"/>
<path d="M35.311 14.03C35.5856 14.03 35.864 14.0109 36.1387 14.0338C37.8931 14.1832 38.1525 14.574 37.6986 16.2788C37.5956 16.6696 37.4087 16.5661 37.1494 16.501C36.276 16.2788 35.4025 15.9877 34.491 16.3095C34.1058 16.4436 33.7053 16.5776 33.6138 17.0412C33.5184 17.5392 33.8884 17.7653 34.2393 17.9645C34.8037 18.2901 35.3987 18.5659 35.9518 18.9107C38.2097 20.3205 38.1143 23.0559 35.7649 24.3163C33.8312 25.3545 31.8326 25.1246 29.8264 24.5921C29.7196 24.5653 29.548 24.4504 29.5518 24.3814C29.5747 23.6765 29.6319 22.9639 29.8722 22.305C29.9675 22.0445 30.2803 22.2974 30.471 22.3663C31.5237 22.7686 32.584 22.9869 33.7091 22.6843C34.1554 22.5655 34.5177 22.3663 34.5863 21.8721C34.655 21.3702 34.3308 21.0714 33.9494 20.8492C33.362 20.5121 32.7327 20.2439 32.1682 19.8723C30.1087 18.5161 30.1163 16.252 32.1682 14.8728C33.1218 14.2369 34.1744 13.9687 35.311 14.03Z" fill="#275797"/>
<path d="M28.0598 14.1682C29.4214 14.1682 29.4023 14.1644 29.1659 15.5474C28.6777 18.4245 28.2047 21.3054 27.7508 24.1902C27.6708 24.692 27.5258 24.9947 26.9575 24.9027C26.763 24.8721 26.5571 24.8989 26.3549 24.8989C24.7721 24.8989 24.7873 24.9027 25.0505 23.3665C25.5387 20.5392 26.0345 17.7119 26.4617 14.8769C26.5532 14.2793 26.7554 14.0992 27.3046 14.1682C27.5563 14.195 27.8119 14.1682 28.0598 14.1682Z" fill="#275797"/>
<rect x="1.7627" y="27.8164" width="56.4477" height="5.74653" fill="#D87B16"/>
</svg>
