<svg width="153" height="44" viewBox="0 0 153 44" fill="none" xmlns="http://www.w3.org/2000/svg">
<path d="M48.944 32.504C46.448 32.504 44.348 31.952 42.644 30.848C40.94 29.72 39.74 28.196 39.044 26.276L43.292 23.792C44.276 26.36 46.208 27.644 49.088 27.644C50.48 27.644 51.5 27.392 52.148 26.888C52.796 26.384 53.12 25.748 53.12 24.98C53.12 24.092 52.724 23.408 51.932 22.928C51.14 22.424 49.724 21.884 47.684 21.308C46.556 20.972 45.596 20.636 44.804 20.3C44.036 19.964 43.256 19.52 42.464 18.968C41.696 18.392 41.108 17.672 40.7 16.808C40.292 15.944 40.088 14.936 40.088 13.784C40.088 11.504 40.892 9.692 42.5 8.348C44.132 6.98 46.088 6.296 48.368 6.296C50.408 6.296 52.196 6.8 53.732 7.808C55.292 8.792 56.504 10.172 57.368 11.948L53.192 14.36C52.184 12.2 50.576 11.12 48.368 11.12C47.336 11.12 46.52 11.36 45.92 11.84C45.344 12.296 45.056 12.896 45.056 13.64C45.056 14.432 45.38 15.08 46.028 15.584C46.7 16.064 47.972 16.592 49.844 17.168C50.612 17.408 51.188 17.6 51.572 17.744C51.98 17.864 52.52 18.068 53.192 18.356C53.888 18.62 54.416 18.872 54.776 19.112C55.16 19.352 55.592 19.676 56.072 20.084C56.552 20.492 56.912 20.912 57.152 21.344C57.416 21.776 57.632 22.304 57.8 22.928C57.992 23.528 58.088 24.188 58.088 24.908C58.088 27.236 57.236 29.084 55.532 30.452C53.852 31.82 51.656 32.504 48.944 32.504ZM71.1203 13.496C73.0883 13.496 74.7083 14.156 75.9803 15.476C77.2763 16.796 77.9243 18.62 77.9243 20.948V32H73.2803V21.524C73.2803 20.324 72.9563 19.412 72.3083 18.788C71.6603 18.14 70.7963 17.816 69.7163 17.816C68.5163 17.816 67.5563 18.188 66.8363 18.932C66.1163 19.676 65.7563 20.792 65.7563 22.28V32H61.1123V6.8H65.7563V16.016C66.8843 14.336 68.6723 13.496 71.1203 13.496ZM97.2256 29.768C95.3776 31.592 93.1216 32.504 90.4576 32.504C87.7936 32.504 85.5376 31.592 83.6896 29.768C81.8656 27.92 80.9536 25.664 80.9536 23C80.9536 20.336 81.8656 18.092 83.6896 16.268C85.5376 14.42 87.7936 13.496 90.4576 13.496C93.1216 13.496 95.3776 14.42 97.2256 16.268C99.0736 18.092 99.9976 20.336 99.9976 23C99.9976 25.664 99.0736 27.92 97.2256 29.768ZM86.9656 26.564C87.9016 27.5 89.0656 27.968 90.4576 27.968C91.8496 27.968 93.0136 27.5 93.9496 26.564C94.8856 25.628 95.3536 24.44 95.3536 23C95.3536 21.56 94.8856 20.372 93.9496 19.436C93.0136 18.5 91.8496 18.032 90.4576 18.032C89.0656 18.032 87.9016 18.5 86.9656 19.436C86.0536 20.372 85.5976 21.56 85.5976 23C85.5976 24.44 86.0536 25.628 86.9656 26.564ZM113.741 13.496C116.165 13.496 118.229 14.42 119.933 16.268C121.661 18.092 122.525 20.336 122.525 23C122.525 25.664 121.661 27.92 119.933 29.768C118.229 31.592 116.165 32.504 113.741 32.504C111.221 32.504 109.277 31.628 107.909 29.876V39.2H103.265V14H107.909V16.124C109.277 14.372 111.221 13.496 113.741 13.496ZM109.313 26.672C110.249 27.608 111.437 28.076 112.877 28.076C114.317 28.076 115.505 27.608 116.441 26.672C117.401 25.712 117.881 24.488 117.881 23C117.881 21.512 117.401 20.3 116.441 19.364C115.505 18.404 114.317 17.924 112.877 17.924C111.437 17.924 110.249 18.404 109.313 19.364C108.377 20.3 107.909 21.512 107.909 23C107.909 24.488 108.377 25.712 109.313 26.672Z" fill="#FDB2BB"/>
<path d="M147.22 28.724C144.676 31.244 141.58 32.504 137.932 32.504C134.284 32.504 131.188 31.244 128.644 28.724C126.124 26.18 124.864 23.072 124.864 19.4C124.864 15.728 126.124 12.632 128.644 10.112C131.188 7.568 134.284 6.296 137.932 6.296C141.58 6.296 144.676 7.568 147.22 10.112C149.764 12.632 151.036 15.728 151.036 19.4C151.036 23.072 149.764 26.18 147.22 28.724ZM132.136 25.34C133.696 26.876 135.628 27.644 137.932 27.644C140.236 27.644 142.168 26.876 143.728 25.34C145.288 23.78 146.068 21.8 146.068 19.4C146.068 17 145.288 15.02 143.728 13.46C142.168 11.9 140.236 11.12 137.932 11.12C135.628 11.12 133.696 11.9 132.136 13.46C130.576 15.02 129.796 17 129.796 19.4C129.796 21.8 130.576 23.78 132.136 25.34Z" fill="#001B38"/>
<circle cx="16" cy="20" r="14.5" stroke="#FDB2BB" stroke-width="3"/>
<path d="M15.7949 12.0339C15.6791 12.0871 15.5758 12.1967 15.532 12.3125C15.5132 12.3625 15.4976 12.6098 15.4976 12.8664C15.4976 13.3984 15.5289 13.3483 15.169 13.3828C14.8529 13.414 14.2833 13.5392 13.914 13.6644C12.1959 14.2371 10.7939 15.4608 10.0052 17.0756C9.68916 17.7265 9.43567 18.5621 9.37934 19.1567C9.34491 19.5354 9.40438 19.4947 8.81915 19.5072C8.25584 19.5166 8.21828 19.5291 8.06807 19.7326C7.97731 19.8546 7.97731 20.1488 8.06807 20.2708C8.21828 20.4743 8.25584 20.4868 8.81915 20.4962C9.40438 20.5087 9.34491 20.468 9.37934 20.8467C9.43567 21.4413 9.68916 22.2769 10.0052 22.9278C10.797 24.5458 12.1928 25.7632 13.9265 26.3453C14.2833 26.4642 14.8435 26.5894 15.1721 26.6207C15.5226 26.6551 15.4913 26.6019 15.5038 27.184C15.5132 27.741 15.5257 27.7817 15.7292 27.9319C15.8512 28.0227 16.1454 28.0227 16.2674 27.9319C16.4709 27.7817 16.4834 27.741 16.4928 27.1902C16.499 26.846 16.5147 26.677 16.5397 26.6613C16.5616 26.6488 16.6305 26.6363 16.693 26.6363C16.9184 26.6363 17.6663 26.4767 18.0732 26.3421C19.5847 25.8445 20.8741 24.8181 21.7128 23.4442C22.1822 22.6743 22.5359 21.6478 22.6172 20.8279C22.6517 20.4774 22.5985 20.5087 23.1806 20.4962C23.7376 20.4868 23.7783 20.4743 23.9285 20.2708C24.0193 20.1488 24.0193 19.8546 23.9285 19.7326C23.7783 19.5291 23.7376 19.5166 23.1806 19.5072C22.5985 19.4947 22.6517 19.526 22.6172 19.1755C22.5828 18.8281 22.4545 18.2679 22.3199 17.8705C21.7441 16.1806 20.5236 14.791 18.9213 14.0055C18.2828 13.6926 17.4347 13.4391 16.8276 13.3828C16.4677 13.3452 16.5053 13.4078 16.4928 12.8226C16.4834 12.2624 16.4709 12.2217 16.2737 12.0746C16.1673 11.9964 15.9201 11.9745 15.7949 12.0339ZM15.5664 15.079C15.6947 15.3074 16.0296 15.3919 16.2612 15.248C16.4396 15.1353 16.499 14.9882 16.499 14.6408V14.3498L16.7243 14.3748C17.6256 14.4843 18.5739 14.863 19.3469 15.4263C20.5705 16.3183 21.4061 17.714 21.6127 19.2005L21.6534 19.501H21.3529C21.0994 19.501 21.0337 19.5135 20.9304 19.573C20.5893 19.7639 20.5987 20.2646 20.9461 20.4398C21.04 20.4899 21.1276 20.5024 21.3592 20.5024H21.6534L21.6127 20.8029C21.2684 23.2721 19.2687 25.2718 16.7995 25.6161L16.499 25.6568V25.3626C16.499 25.131 16.4865 25.0434 16.4364 24.9495C16.2612 24.6021 15.7604 24.5927 15.5695 24.9338C15.5101 25.0371 15.4976 25.1028 15.4976 25.3563V25.6568L15.3035 25.6286C14.1769 25.4815 13.188 25.0434 12.3086 24.3048C11.2821 23.4411 10.531 22.0547 10.3714 20.7278L10.3464 20.5024H10.6374C10.869 20.5024 10.9566 20.4899 11.0505 20.4398C11.4041 20.2615 11.4041 19.742 11.0505 19.5636C10.9566 19.5135 10.869 19.501 10.6374 19.501H10.3464L10.3714 19.2757C10.531 17.9487 11.2821 16.5624 12.3086 15.6986C13.0847 15.0477 13.9829 14.6158 14.9186 14.4374C15.1095 14.3998 15.3129 14.3654 15.3724 14.3623L15.4819 14.3529L15.4976 14.6659C15.507 14.8787 15.532 15.0101 15.5664 15.079Z" fill="black"/>
<path d="M15.5644 18.0475C15.2202 18.1226 14.8571 18.3261 14.5911 18.5952C13.8087 19.3776 13.8025 20.6263 14.5755 21.3961C14.9573 21.7748 15.3766 21.9688 15.8867 21.997C16.8006 22.0471 17.6393 21.465 17.9178 20.5825C18.0148 20.2726 18.0148 19.7344 17.9178 19.4245C17.6017 18.4293 16.5784 17.8285 15.5644 18.0475ZM16.472 19.1304C16.6816 19.243 16.7787 19.3432 16.9007 19.5779C16.9696 19.7124 16.9821 19.7782 16.9821 20.0035C16.9852 20.2476 16.9758 20.2852 16.8788 20.4667C16.7599 20.6857 16.6597 20.7796 16.425 20.9048C16.2905 20.9736 16.2247 20.9862 15.9994 20.9862C15.7741 20.9862 15.7084 20.9736 15.5738 20.9048C15.3391 20.7796 15.2389 20.6857 15.12 20.4667C15.023 20.2852 15.0136 20.2476 15.0167 20.0035C15.0167 19.6905 15.0918 19.5028 15.2953 19.2994C15.6082 18.9864 16.0745 18.9207 16.472 19.1304Z" fill="#FDB2BB"/>
</svg>
