<svg width="76" height="24" viewBox="0 0 76 24" fill="none" xmlns="http://www.w3.org/2000/svg">
<path d="M0.24 23V1.24H6.064V23H0.24ZM16.1525 14.424C14.7018 13.6987 13.2512 12.76 11.8005 11.608C10.3498 10.4347 9.6245 8.92 9.6245 7.064C9.64583 5.272 10.3818 3.78933 11.8325 2.616C13.2832 1.42133 15.2458 0.823999 17.7205 0.823999C18.8085 0.823999 19.9285 0.983999 21.0805 1.304C22.2538 1.60267 23.2672 2.04 24.1205 2.616L22.3925 6.552C21.2405 6.14667 20.3658 5.89067 19.7685 5.784C19.1712 5.656 18.5098 5.592 17.7845 5.592C17.1232 5.592 16.6005 5.752 16.2165 6.072C15.8325 6.37067 15.6405 6.72267 15.6405 7.128C15.6405 7.59733 15.9605 8.01333 16.6005 8.376C17.2618 8.71733 18.0405 9.12267 18.9365 9.592C20.4725 10.3813 21.9552 11.3733 23.3845 12.568C24.8138 13.7627 25.5285 15.2453 25.5285 17.016C25.5285 18.8507 24.7498 20.376 23.1925 21.592C21.6565 22.808 19.5445 23.416 16.8565 23.416C15.7472 23.416 14.4885 23.256 13.0805 22.936C11.6938 22.5947 10.5738 22.168 9.7205 21.656L11.6405 17.272C12.1952 17.6133 12.9738 17.9333 13.9765 18.232C15.0005 18.5093 15.9072 18.648 16.6965 18.648C17.6138 18.648 18.3072 18.4667 18.7765 18.104C19.2672 17.7413 19.5125 17.3573 19.5125 16.952C19.5125 16.568 19.1605 16.152 18.4565 15.704C17.7525 15.256 16.9845 14.8293 16.1525 14.424ZM43.239 23V12.472L40.295 16.44L37.959 16.76L34.439 12.472V23H28.615V1.24H32.615L39.175 9.528L45.191 1.24H49.063V23H43.239ZM75.7198 16.536H70.0558V23L64.6798 22.744V16.536H59.3358L58.9838 11.96H64.6798V6.04H70.0558V11.96H75.3998L75.7198 16.536Z" fill="#045B02"/>
</svg>
