<svg width="49" height="49" viewBox="0 0 49 49" fill="none" xmlns="http://www.w3.org/2000/svg">
<path d="M20.851 0.0208101C24.6743 0.0534872 28.9386 -0.134406 33.1621 0.604914C34.4651 0.833654 35.7273 1.18493 36.9445 1.69143C41.9482 3.77868 43.868 7.85924 43.3125 13.5328C42.6018 20.7994 37.9861 24.8718 31.5936 27.3307C27.4232 28.936 23.0322 29.2873 18.6086 29.3567C17.4036 29.3771 16.1864 29.4548 14.9937 29.3322C13.9807 29.2301 13.756 29.6917 13.5681 30.529C12.6327 34.7117 11.6238 38.878 10.7007 43.0648C10.5455 43.7673 10.2881 43.9757 9.59375 43.9634C6.68957 43.9267 3.78538 43.9226 0.885287 43.9634C0.0561041 43.9757 -0.123616 43.7878 0.0724466 42.9463C2.80916 31.1907 5.50911 19.427 8.21723 7.66726C8.73189 5.43296 9.26698 3.20275 9.74488 0.960278C9.89193 0.265888 10.1533 -0.0118668 10.9213 0.000387144C14.0828 0.0494029 17.2484 0.0208101 20.851 0.0208101ZM23.8614 8.99477C22.44 8.99477 21.2717 9.01928 20.1035 8.98252C19.6379 8.97027 19.4377 9.14591 19.3234 9.57071C18.3635 13.0508 17.3954 16.5269 16.4192 19.9988C16.3212 20.346 16.2721 20.5952 16.75 20.5666C19.8258 20.3909 22.9383 20.9995 25.9854 20.2398C28.0645 19.7251 29.8454 18.659 30.9524 16.776C32.7373 13.7452 32.5331 10.065 27.893 9.15407C26.4674 8.8804 25.0337 9.08464 23.8614 8.99477Z" fill="#103572"/>
<path d="M43.8792 7.60547C46.6527 9.39454 48.07 11.8249 48.4295 14.9292C49.516 24.2831 43.5974 29.9975 36.2287 32.5422C32.5606 33.8085 28.7538 34.2251 24.9019 34.3476C23.8849 34.3803 22.8637 34.3517 21.8466 34.3517C18.9874 34.3517 18.9956 34.3517 18.3502 37.1905C17.5251 40.8218 16.6591 44.4408 15.8667 48.0802C15.7156 48.7664 15.4705 49.0074 14.7598 48.9992C11.8556 48.9625 8.95141 48.9625 6.04723 48.9992C5.27523 49.0074 5.06282 48.8032 5.23438 48.0312C5.90834 44.9718 5.89201 44.9677 9.0331 44.9677C11.2715 44.9677 11.2551 44.9636 11.7616 42.7416C12.6398 38.8938 13.5752 35.0543 14.4167 31.1984C14.5841 30.4305 14.9027 30.2589 15.6216 30.2752C20.4129 30.3733 25.1919 30.2834 29.8566 28.9436C33.3081 27.9552 36.4778 26.4398 39.1329 23.9931C43.9364 19.5571 45.17 14.0429 43.8792 7.60547Z" fill="#039CDD"/>
</svg>
