<svg width="26" height="26" viewBox="0 0 26 26" fill="none" xmlns="http://www.w3.org/2000/svg">
<path d="M20.9442 12.8496C20.6675 14.4935 20.3175 15.7305 19.8943 16.5605C19.8455 16.7721 19.6583 17.2075 19.3328 17.8667C19.0073 18.5259 18.7143 19.2461 18.4539 20.0273C18.1935 20.8086 18.0633 21.5736 18.0633 22.3223C18.0633 23.4128 17.7174 24.2062 17.0257 24.7026C16.334 25.1991 15.1173 25.4473 13.3758 25.4473C11.6343 25.4473 10.4176 25.1991 9.72589 24.7026C9.03416 24.2062 8.68829 23.4128 8.68829 22.3223C8.68829 21.5736 8.55809 20.8086 8.29767 20.0273C8.03725 19.2461 7.74428 18.5259 7.41876 17.8667C7.09324 17.2075 6.90607 16.7721 6.85724 16.5605C6.43406 15.7305 6.08413 14.4935 5.80743 12.8496C5.61212 12.8984 5.40867 12.9269 5.19708 12.9351C4.98549 12.9432 4.74542 12.9391 4.47687 12.9229C4.20831 12.9066 3.98045 12.8903 3.79327 12.874C3.6061 12.8577 3.34975 12.8171 3.02423 12.752C2.69871 12.6868 2.46678 12.6421 2.32843 12.6177C2.19008 12.5933 1.93374 12.5404 1.55939 12.459C1.18504 12.3776 0.957174 12.3288 0.875793 12.3125C1.23387 11.8242 1.50649 11.4702 1.69366 11.2505C1.88084 11.0308 2.14532 10.7866 2.48712 10.5181C2.82892 10.2495 3.20734 10.0664 3.62238 9.96875C4.03741 9.87109 4.52976 9.82227 5.09943 9.82227C5.18081 9.82227 5.34357 9.84668 5.58771 9.89551C5.60398 9.40723 5.67723 8.97591 5.80743 8.60156C5.6284 7.99935 5.54702 7.41341 5.56329 6.84375C5.56329 6.42057 5.56736 6.09098 5.5755 5.85498C5.58364 5.61898 5.61619 5.26497 5.67316 4.79297C5.73012 4.32096 5.82371 3.91406 5.95392 3.57227C6.08413 3.23047 6.25909 2.85205 6.47882 2.43701C6.69855 2.02197 6.99559 1.64762 7.36993 1.31396C7.74428 0.980306 8.18374 0.691406 8.68829 0.447266C8.08608 1.63542 7.78497 2.7015 7.78497 3.64551C7.78497 4.45931 7.92332 5.2487 8.20001 6.01367C9.46954 5.42773 11.1948 5.13477 13.3758 5.13477C15.5568 5.13477 17.282 5.42773 18.5516 6.01367C18.8283 5.2487 18.9666 4.45931 18.9666 3.64551C18.9666 2.7015 18.6655 1.63542 18.0633 0.447266C18.5679 0.691406 19.0073 0.980306 19.3817 1.31396C19.756 1.64762 20.053 2.02197 20.2728 2.43701C20.4925 2.85205 20.6675 3.23047 20.7977 3.57227C20.9279 3.91406 21.0215 4.32096 21.0784 4.79297C21.1354 5.26497 21.1679 5.61898 21.1761 5.85498C21.1842 6.09098 21.1883 6.42057 21.1883 6.84375C21.2046 7.39714 21.1232 7.98307 20.9442 8.60156C21.0744 8.97591 21.1476 9.40723 21.1639 9.89551C21.408 9.84668 21.5708 9.82227 21.6522 9.82227C22.2218 9.82227 22.7142 9.87109 23.1292 9.96875C23.5443 10.0664 23.9227 10.2495 24.2645 10.5181C24.6063 10.7866 24.8707 11.0308 25.0579 11.2505C25.2451 11.4702 25.5177 11.8242 25.8758 12.3125C25.7944 12.3288 25.5665 12.3776 25.1922 12.459C24.8179 12.5404 24.5615 12.5933 24.4232 12.6177C24.2848 12.6421 24.0529 12.6868 23.7274 12.752C23.4018 12.8171 23.1455 12.8577 22.9583 12.874C22.7711 12.8903 22.5433 12.9066 22.2747 12.9229C22.0062 12.9391 21.7661 12.9432 21.5545 12.9351C21.3429 12.9269 21.1395 12.8984 20.9442 12.8496ZM13.3758 8.25977C12.09 8.25977 10.9873 8.49984 10.0677 8.97998C9.14809 9.46012 8.68829 10.042 8.68829 10.7256C8.68829 11.2627 8.83885 11.8405 9.13995 12.459C9.44106 13.0775 9.87644 13.5332 10.4461 13.8262C10.6414 13.9238 10.792 14.0215 10.8978 14.1191C11.0036 14.2168 11.1419 14.3918 11.3128 14.644C11.4837 14.8963 11.6098 15.2747 11.6912 15.7793C11.7726 16.2839 11.8133 16.9023 11.8133 17.6348C11.8133 18.3346 11.7319 18.945 11.5692 19.4658C11.4064 19.9867 11.2274 20.3691 11.032 20.6133C10.8367 20.8574 10.6577 21.1545 10.4949 21.5044C10.3322 21.8543 10.2508 22.2327 10.2508 22.6396C10.2508 23.014 10.6007 23.3151 11.3006 23.543C12.0005 23.7708 12.6922 23.8848 13.3758 23.8848C14.0594 23.8848 14.7511 23.7708 15.451 23.543C16.1509 23.3151 16.5008 23.014 16.5008 22.6396C16.5008 22.2327 16.4194 21.8543 16.2567 21.5044C16.0939 21.1545 15.9149 20.8574 15.7195 20.6133C15.5242 20.3691 15.3452 19.9867 15.1824 19.4658C15.0197 18.945 14.9383 18.3346 14.9383 17.6348C14.9383 16.9023 14.9831 16.2839 15.0726 15.7793C15.1621 15.2747 15.2923 14.8923 15.4632 14.6318C15.6341 14.3714 15.7724 14.1965 15.8782 14.1069C15.984 14.0174 16.1264 13.9238 16.3055 13.8262C16.8589 13.5332 17.2902 13.0734 17.5994 12.4468C17.9087 11.8201 18.0633 11.2464 18.0633 10.7256C18.0633 10.042 17.6035 9.46012 16.6839 8.97998C15.7643 8.49984 14.6616 8.25977 13.3758 8.25977Z" fill="black"/>
</svg>
