<svg width="176" height="24" viewBox="0 0 176 24" fill="none" xmlns="http://www.w3.org/2000/svg">
<path d="M0.24 23V1.24H6.064V23H0.24ZM10.5525 23V1.24H15.9605L24.3445 13.048V1.24H30.1685V23H24.7285L16.3765 11.544V23H10.5525ZM40.2463 14.424C38.7956 13.6987 37.3449 12.76 35.8943 11.608C34.4436 10.4347 33.7183 8.92 33.7183 7.064C33.7396 5.272 34.4756 3.78933 35.9263 2.616C37.3769 1.42133 39.3396 0.823999 41.8142 0.823999C42.9023 0.823999 44.0223 0.983999 45.1743 1.304C46.3476 1.60267 47.3609 2.04 48.2143 2.616L46.4863 6.552C45.3343 6.14667 44.4596 5.89067 43.8623 5.784C43.2649 5.656 42.6036 5.592 41.8783 5.592C41.2169 5.592 40.6943 5.752 40.3103 6.072C39.9263 6.37067 39.7343 6.72267 39.7343 7.128C39.7343 7.59733 40.0543 8.01333 40.6943 8.376C41.3556 8.71733 42.1343 9.12267 43.0303 9.592C44.5663 10.3813 46.0489 11.3733 47.4783 12.568C48.9076 13.7627 49.6223 15.2453 49.6223 17.016C49.6223 18.8507 48.8436 20.376 47.2863 21.592C45.7503 22.808 43.6383 23.416 40.9503 23.416C39.8409 23.416 38.5823 23.256 37.1743 22.936C35.7876 22.5947 34.6676 22.168 33.8143 21.656L35.7343 17.272C36.2889 17.6133 37.0676 17.9333 38.0703 18.232C39.0943 18.5093 40.0009 18.648 40.7903 18.648C41.7076 18.648 42.4009 18.4667 42.8703 18.104C43.3609 17.7413 43.6063 17.3573 43.6063 16.952C43.6063 16.568 43.2543 16.152 42.5503 15.704C41.8463 15.256 41.0783 14.8293 40.2463 14.424ZM52.7088 23V1.24H67.1408L67.6848 5.816H58.5328V9.784H65.2208L65.7648 14.36H58.5328V18.424H68.1007L68.6448 23H52.7088ZM86.1453 23V12.472L83.2013 16.44L80.8653 16.76L77.3453 12.472V23H71.5213V1.24H75.5213L82.0813 9.528L88.0972 1.24H91.9693V23H86.1453ZM96.4588 23V1.24H102.283V23H96.4588ZM106.771 23V1.24H112.179L120.563 13.048V1.24H126.387V23H120.947L112.595 11.544V23H106.771ZM139.921 8.216L137.841 14.136H142.097L139.921 8.216ZM142.929 1.24L151.057 22.424L145.329 23L143.761 18.712H136.241L134.737 23H128.945L137.105 1.24H142.929ZM175.782 16.536H170.118V23L164.742 22.744V16.536H159.398L159.046 11.96H164.742V6.04H170.118V11.96H175.462L175.782 16.536Z" fill="#2D6F6D"/>
</svg>
